<?xml version="1.0" encoding="UTF-8"?>
<svg width="200px" height="200px" viewBox="0 0 200 200" version="1.1" xmlns="http://www.w3.org/2000/svg" xmlns:xlink="http://www.w3.org/1999/xlink">
    <!-- Generator: Sketch 53.2 (72643) - https://sketchapp.com -->
    <title>017-master-card-logo</title>
	<desc>Created with Sketch for Hektor Commerce.</desc>
    <g id="017-master-card-logo" stroke="none" stroke-width="1" fill-rule="evenodd">
        <path d="M56.9757975,155.992747 C56.9071753,157.016358 57.2695022,158.022063 57.9751793,158.766716 C58.6808564,159.511369 59.6656501,159.927189 60.6914692,159.913642 C62.7100335,159.906256 64.3519007,158.285649 64.385593,156.267352 C64.4192854,154.249056 62.8324249,152.57455 60.8152319,152.499793 C58.7980388,152.425036 57.0915878,153.977493 56.9757975,155.992747 L56.9757975,155.992747 Z M66.8907229,149.869613 L66.8907229,162.115881 L64.2280363,162.115881 L64.2280363,160.629314 C63.3058999,161.819201 61.8641389,162.488202 60.3601259,162.42409 C56.9257975,162.42409 54.2340065,159.731553 54.2340065,155.992747 C54.2340065,152.253941 56.9272901,149.561404 60.3601259,149.561404 C61.8641389,149.497292 63.3058999,150.166293 64.2280363,151.35618 L64.2280363,149.869613 L66.8907229,149.869613 Z M156.872812,155.992747 C156.80442,157.0163 157.166824,158.021873 157.872451,158.766473 C158.578078,159.511073 159.562735,159.926962 160.588484,159.913642 C162.607662,159.906686 164.250294,158.285786 164.28414,156.26688 C164.317987,154.247974 162.730611,152.572924 160.712801,152.498289 C158.694991,152.423653 156.988207,153.976857 156.872812,155.992747 L156.872812,155.992747 Z M166.790723,144.947971 L166.790723,162.11215 L164.125051,162.11215 L164.125051,160.625583 C163.202995,161.81557 161.761179,162.484597 160.257141,162.420359 C156.823559,162.420359 154.131021,159.727822 154.131021,155.989016 C154.131021,152.25021 156.824305,149.557672 160.257141,149.557672 C161.761179,149.493434 163.202995,150.162461 164.125051,151.352448 L164.125051,144.947971 L166.790723,144.947971 Z M99.943708,151.942747 C98.0459468,151.942747 96.9728125,153.144986 96.6884841,154.913642 L103.042962,154.913642 C102.761618,153.018866 101.660126,151.942747 99.943708,151.942747 Z M99.9959468,149.554687 L99.9959468,149.553941 C103.42729,149.553941 105.784753,152.167374 105.811618,155.985284 C105.811618,156.342747 105.784753,156.677075 105.758633,157.009165 L96.6646035,157.009165 C96.8754181,158.833969 98.4967116,160.161923 100.32729,160.009165 C101.624348,159.988447 102.877784,159.537473 103.890723,158.727075 L105.195947,160.700956 C103.789969,161.870412 102.002701,162.481398 100.175051,162.417374 C96.5086334,162.417374 93.8966931,159.880807 93.8966931,155.98603 C93.8966931,152.166627 96.4071408,149.554687 99.9959468,149.554687 Z M132.148932,155.985284 C132.08031,157.008895 132.442637,158.014601 133.148314,158.759254 C133.853991,159.503907 134.838784,159.919726 135.864604,159.90618 C137.883168,159.898794 139.525035,158.278186 139.558727,156.25989 C139.59242,154.241593 138.005559,152.567087 135.988366,152.49233 C133.971173,152.417574 132.264722,153.97003 132.148932,155.985284 L132.148932,155.985284 Z M142.063857,149.86215 L142.063857,162.108419 L139.401171,162.108419 L139.401171,160.621851 C138.478554,161.811135 137.037123,162.479983 135.53326,162.416627 C132.098932,162.416627 129.407141,159.72409 129.407141,155.985284 C129.407141,152.246478 132.100424,149.553941 135.53326,149.553941 C137.037123,149.490585 138.478554,150.159434 139.401171,151.348717 L139.401171,149.86215 L142.063857,149.86215 Z M117.110872,155.985284 C117.110872,152.269613 119.697439,149.553941 123.644454,149.553941 C125.242871,149.474763 126.813201,149.995634 128.047439,151.014389 L126.769081,153.167374 C125.847387,152.464032 124.723187,152.077171 123.563857,152.064389 C121.492212,152.192265 119.877525,153.909696 119.877525,155.985284 C119.877525,158.060872 121.492212,159.778303 123.563857,159.90618 C124.723187,159.893397 125.847387,159.506536 126.769081,158.803195 L128.047439,160.95618 C126.813557,161.975578 125.24297,162.496533 123.644454,162.416627 C119.697439,162.416627 117.110872,159.700956 117.110872,155.985284 L117.110872,155.985284 Z M151.43923,149.553941 L151.441469,149.553195 C152.088234,149.555774 152.729804,149.668844 153.338484,149.887523 L152.517589,152.397971 C151.988065,152.186672 151.421981,152.08218 150.851917,152.090508 C149.110872,152.090508 148.239977,153.216627 148.239977,155.242747 L148.239977,162.108419 L145.57132,162.108419 L145.57132,149.86215 L148.210126,149.86215 L148.210126,151.348717 C148.876671,150.204331 150.11543,149.515813 151.43923,149.553941 Z M80.0608722,150.843493 L78.904902,152.995732 C77.7420754,152.327206 76.4281431,151.965849 75.0869916,151.945732 C73.6265438,151.945732 72.7556483,152.484538 72.7556483,153.38006 C72.7556483,154.200956 73.6795289,154.433045 74.8317677,154.582299 L76.0869916,154.764389 C78.7526632,155.147971 80.3653498,156.27409 80.3653498,158.427075 C80.3653498,160.758419 78.316096,162.42409 74.7787826,162.42409 C72.8879822,162.475176 71.0307128,161.917995 69.4802751,160.834538 L70.735499,158.761404 C71.9109601,159.633478 73.3456041,160.084794 74.8086334,160.042747 C76.6302751,160.042747 77.6004244,159.503195 77.6004244,158.55618 C77.6004244,157.863642 76.9108722,157.479314 75.4504244,157.27409 L74.1929617,157.095732 C71.4534095,156.711404 69.9668423,155.479314 69.9668423,153.482299 C69.9668423,151.048717 71.9638572,149.561404 75.0668423,149.561404 C76.8199545,149.501638 78.5533468,149.946642 80.0608722,150.843493 Z M114.418335,149.561404 L114.416842,149.560657 C115.06385,149.563239 115.705665,149.676308 116.314604,149.894986 L115.493708,152.405433 C114.964206,152.194059 114.398107,152.089564 113.828036,152.097971 C112.086992,152.097971 111.216096,153.22409 111.216096,155.25021 L111.216096,162.115881 L108.553409,162.115881 L108.553409,149.869613 L111.192962,149.869613 L111.192962,151.35618 C111.857207,150.211306 113.095295,149.522365 114.418335,149.561404 Z M91.6929617,149.868866 L91.6959468,152.303195 L87.3407229,152.303195 L87.3407229,157.836777 C87.3407229,159.065881 87.7750513,159.886777 89.1063945,159.886777 C89.9380706,159.858599 90.7490807,159.620354 91.4638572,159.194239 L92.232514,161.475583 C91.2335236,162.099025 90.0787292,162.427562 88.9011707,162.423344 C85.7496781,162.423344 84.6474393,160.730807 84.6474393,157.889762 L84.6474393,152.303195 L82.163111,152.303195 L82.163111,149.868866 L84.6459468,149.868866 L84.6459468,146.153195 L87.3377378,146.153195 L87.3377378,149.868866 L91.6929617,149.868866 Z M51.8772901,162.115135 L49.1810214,162.109911 L49.1810214,155.294986 C49.1810214,153.218866 48.313111,152.065881 46.4944542,152.065881 C44.7265438,152.065881 43.4974393,153.194986 43.4974393,155.321105 L43.4974393,162.11215 L40.8056483,162.11215 L40.8056483,155.297224 C40.8056483,153.221105 39.9108722,152.06812 38.1429617,152.06812 C36.3213199,152.06812 35.1429617,153.197224 35.1429617,155.323344 L35.1429617,162.114389 L32.4563945,162.114389 L32.4563945,149.86812 L35.1205737,149.86812 L35.1205737,151.378568 C35.9094378,150.179718 37.2738379,149.487865 38.7071408,149.559911 C40.3535424,149.489776 41.9064019,150.325909 42.7541557,151.739016 C43.6847361,150.28219 45.3343809,149.447216 47.0593796,149.559911 C48.3682954,149.482733 49.6471035,149.972671 50.5693844,150.904666 C51.4916653,151.836661 51.9681776,153.120532 51.8772901,154.428568 L51.8772901,162.115135 Z M103.350517,46.3900419 C102.999437,46.097065 102.859667,45.878841 102.884814,45.6851453 C110.231775,40.8299042 119.038224,38 128.507653,38 C154.184489,38 175,58.7869572 175,84.4285714 C175,110.07038 154.184489,130.857143 128.507653,130.857143 C119.031012,130.857143 110.218714,128.023345 102.868634,123.16168 C102.919708,123.033004 103.047586,122.890311 103.260067,122.716277 C105.064399,121.239323 106.731885,119.605855 108.276367,117.859868 C112.423055,113.172237 115.605978,107.909359 117.825915,102.046122 C119.284819,98.1926475 120.265155,94.2256813 120.719356,90.1567086 C121.189933,85.9413447 121.125214,81.7150794 120.511944,77.48531 C119.822259,72.7275981 118.519498,68.1707847 116.530757,63.8138964 C113.43653,57.0355196 109.086328,51.1785115 103.350517,46.3900419 Z M82.1427987,84.3606203 C82.1427987,69.5596121 89.0556814,56.3704071 99.83573,47.8237428 C100.072475,47.8049645 100.305494,47.9043329 100.57578,48.1261514 C105.928537,52.5210535 110.154841,57.8128144 113.174863,64.0288192 C115.088047,67.9669785 116.417704,72.1005494 117.145201,76.4428331 C117.631441,79.3444699 117.912906,82.2570607 117.847787,85.1731725 C117.730885,90.4179877 116.814699,95.5262691 114.991937,100.491953 C112.033308,108.552533 107.168556,115.208459 100.618147,120.706585 C100.391012,120.897302 100.196438,121.005082 100.00814,121.035792 C89.1288429,112.493627 82.1427987,99.2408494 82.1427987,84.3606203 Z M25.1270986,80.9890611 C26.8897141,56.9536613 46.9738232,38.0000973 71.4923469,38.0000973 C80.9773705,38.0000973 89.7972709,40.8389563 97.151444,45.7089922 C97.1779553,45.9028826 96.997834,46.0852875 96.7136167,46.3196691 C95.8798734,47.0076295 95.0625048,47.7216757 94.2911412,48.478549 C88.4828143,54.1774858 84.2172146,60.8312743 81.614033,68.5695642 C80.0036629,73.3568658 79.1244994,78.2481207 78.9936971,83.2738919 C78.892525,87.1626011 79.2710916,91.0086777 80.0833919,94.8325621 C80.8559251,98.4693696 81.9972781,101.962511 83.5361066,105.329507 C86.6478774,112.138252 91.0937933,117.951849 96.8151786,122.780226 C96.9896467,122.927396 97.0912086,123.049648 97.1397478,123.155743 C89.7881089,128.021301 80.9723022,130.85724 71.4923469,130.85724 C45.8153157,130.85724 25,110.070478 25,84.4286688 C25,83.364997 25.0389873,82.3104747 25.1095543,81.2647125 L25.1267087,81.2563417 L25.1267087,81.2561471 C25.1255391,81.1669886 25.1272935,81.0782195 25.1270986,80.9890611 Z" id="Shape" fill-rule="nonzero" fill="#0e0e0e" />
    </g>
</svg>